<?xml version="1.0" encoding="utf-8"?><svg viewBox="0 0 95 43" xmlns="http://www.w3.org/2000/svg" xmlns:xlink="http://www.w3.org/1999/xlink"><style>:root>svg{display:none}:root>svg:target{display:block}</style><svg viewBox="0 0 16 15" id="footer__icon-facebook" xmlns="http://www.w3.org/2000/svg"><path d="M8.483 0C4.345 0 .99 3.376.99 7.539c0 3.78 2.768 6.9 6.373 7.445V9.536H5.51V7.555h1.854V6.236c0-2.183 1.057-3.14 2.86-3.14.864 0 1.322.064 1.537.093v1.73h-1.23c-.765 0-1.032.73-1.032 1.553v1.083h2.243l-.304 1.981h-1.94V15c3.658-.499 6.48-3.645 6.48-7.461C15.977 3.376 12.622 0 8.483 0Z"/></svg><svg viewBox="0 0 14 13" id="footer__icon-instagramm" xmlns="http://www.w3.org/2000/svg"><path d="M4.733 0A3.795 3.795 0 0 0 .945 3.792V9.21c0 2.09 1.7 3.791 3.79 3.791h5.41a3.795 3.795 0 0 0 3.789-3.792V3.79c0-2.09-1.7-3.791-3.79-3.791H4.734Zm6.603 2.08a.52.52 0 1 1-.001 1.04.52.52 0 0 1 0-1.04ZM7.439 3.12a3.382 3.382 0 0 1 3.377 3.38A3.382 3.382 0 0 1 7.44 9.88 3.382 3.382 0 0 1 4.062 6.5 3.382 3.382 0 0 1 7.44 3.12Zm0 1.04A2.339 2.339 0 0 0 5.102 6.5a2.339 2.339 0 1 0 2.337-2.34Z"/></svg><svg viewBox="0 0 19 15" id="footer__icon-twitter" xmlns="http://www.w3.org/2000/svg"><path d="M18.886 1.774a7.275 7.275 0 0 1-2.122.6A3.794 3.794 0 0 0 18.388.277a7.25 7.25 0 0 1-2.344.918A3.627 3.627 0 0 0 13.354 0c-2.038 0-3.69 1.696-3.69 3.786 0 .296.034.584.097.864C6.695 4.49 3.976 2.981 2.156.691c-.32.56-.5 1.215-.5 1.907 0 1.314.65 2.471 1.642 3.153a3.657 3.657 0 0 1-1.673-.473v.044c0 1.837 1.272 3.367 2.959 3.715a3.553 3.553 0 0 1-.97.136c-.238 0-.47-.028-.695-.07.47 1.501 1.832 2.598 3.445 2.63a7.293 7.293 0 0 1-5.462 1.568A10.28 10.28 0 0 0 6.558 15c6.787 0 10.499-5.77 10.499-10.776 0-.164-.005-.328-.013-.489a7.4 7.4 0 0 0 1.842-1.961Z"/></svg><svg viewBox="0 0 20 13" id="footer__icon-youtube" xmlns="http://www.w3.org/2000/svg"><path d="M19.312 2.234C19.137 1.341 18.301.69 17.33.487 15.878.203 13.191 0 10.284 0c-2.906 0-5.636.203-7.09.487-.969.203-1.806.813-1.982 1.747A24.635 24.635 0 0 0 .86 6.5c0 1.828.176 3.25.396 4.266.177.893 1.013 1.544 1.982 1.747 1.541.284 4.184.487 7.091.487 2.908 0 5.55-.203 7.092-.487.968-.203 1.804-.813 1.982-1.747.175-1.016.395-2.48.44-4.266-.09-1.828-.31-3.25-.53-4.266ZM7.906 9.344V3.656L13.28 6.5 7.906 9.344Z"/></svg><svg viewBox="0 0 27 32" id="header-about" xmlns="http://www.w3.org/2000/svg"><path d="M9.276.172c-3.767 0-6.842 2.754-6.842 6.126 0 3.372 3.075 6.125 6.842 6.125 3.767 0 6.842-2.753 6.842-6.125S13.043.172 9.276.172Zm0 13.792c-5.12 0-9.276 3.72-9.276 8.303v4.705c0 .264.117.516.325.702.209.186.49.29.785.29h7.829a8.46 8.46 0 0 1-.768-3.503c0-3.982 2.815-7.406 6.745-8.775-1.563-1.076-3.516-1.722-5.64-1.722Zm9.417 3.062c-4.575 0-8.307 3.34-8.307 7.435s3.732 7.436 8.307 7.436S27 28.556 27 24.46s-3.732-7.435-8.307-7.435Zm.169 3.522c.192.013.386.041.577.087 1.534.367 2.537 1.709 2.33 3.117-.156 1.066-.97 1.933-2.044 2.293v1.338a.939.939 0 0 1-.316.716c-.208.19-.494.298-.792.298-.298 0-.584-.108-.792-.298a.939.939 0 0 1-.316-.716v-2.151a.94.94 0 0 1 .313-.703 1.174 1.174 0 0 1 .875-.298c.454-.032.811-.321.872-.734.064-.437-.228-.839-.703-.953-.476-.114-.948.098-1.136.506-.15.328-.485.56-.877.607a1.174 1.174 0 0 1-1.027-.377.909.909 0 0 1-.149-.984c.53-1.148 1.839-1.84 3.184-1.748Z"/></svg><svg viewBox="0 0 27 30" id="header-blog" xmlns="http://www.w3.org/2000/svg"><path d="M22.336 29.193a.58.58 0 0 0 .58.575h2.844a.58.58 0 0 0 .58-.575V26.9h-4.004v2.292ZM25.964 8.289a13.237 13.237 0 0 0-1.109-2.98c-.197-.386-.836-.386-1.033 0a13.286 13.286 0 0 0-1.473 5.682h3.98a13.225 13.225 0 0 0-.365-2.702ZM22.336 12.142h4.005v13.609h-4.005V12.142ZM14.872 22.404c-1.102 0-1.999.89-1.999 1.982s.897 1.981 2 1.981a1.992 1.992 0 0 0 1.998-1.981 1.992 1.992 0 0 0-1.999-1.982Z"/><path d="M0 3.057v25.611c0 .608.497 1.1 1.11 1.1h17.11c.612 0 1.11-.492 1.11-1.1V3.057c0-.747.303-1.533.725-2.058H2.075A2.067 2.067 0 0 0 0 3.057Zm2.468 14.156h14.396c.348 0 .63.28.63.625a.628.628 0 0 1-.63.626H2.468a.628.628 0 0 1-.63-.626c0-.345.281-.625.63-.625Zm-.63-3.74c0-.346.281-.626.63-.626h14.396c.348 0 .63.28.63.626a.628.628 0 0 1-.63.625H2.468a.628.628 0 0 1-.63-.625Zm8.213 13.722H2.468a.628.628 0 0 1-.631-.625c0-.346.282-.626.63-.626h7.584c.348 0 .63.28.63.626a.628.628 0 0 1-.63.625Zm0-4.365H2.468a.628.628 0 0 1-.631-.626c0-.345.282-.625.63-.625h7.584c.348 0 .63.28.63.625a.628.628 0 0 1-.63.626Zm4.82 4.788c-1.799 0-3.261-1.45-3.261-3.233 0-1.782 1.462-3.232 3.26-3.232 1.798 0 3.26 1.45 3.26 3.232 0 1.783-1.462 3.233-3.26 3.233ZM6.057 4.117h6.586c.349 0 .631.28.631.625a.628.628 0 0 1-.63.626H6.056a.628.628 0 0 1-.631-.626c0-.345.282-.625.631-.625Zm10.807 4.365c.348 0 .63.28.63.626a.628.628 0 0 1-.63.625H2.468a.628.628 0 0 1-.63-.625c0-.346.281-.626.63-.626h14.396ZM24.75 3.058v.863a1.621 1.621 0 0 0-.413-.051c-.667 0-1.26.35-1.55.915a14.385 14.385 0 0 0-1.613 6.622v.392h-.586V3.058c0-1.088.859-1.99 1.996-2.06h.087a2.07 2.07 0 0 1 2.078 2.06Z"/></svg><svg viewBox="0 0 21 16" id="header-cart" xmlns="http://www.w3.org/2000/svg"><path fill-rule="evenodd" clip-rule="evenodd" d="M0 0h3.483l1.375 3.65 3.209 8.514h10.266v.561c.459.374.733.842.733 1.497 0 .936-.825 1.778-1.741 1.778-1.008 0-1.742-.842-1.742-1.778 0-.28 0-.561.184-.842h-5.409c.092.28.184.561.184.842 0 .936-.825 1.778-1.742 1.778-1.008 0-1.742-.842-1.742-1.778 0-.28.092-.561.184-.842L3.117 2.526l-.458-1.31H0V0Zm5.683 3.462h14.208c.55 0 1.192.468 1.1 1.123l-1.741 6.737H8.616l-2.933-7.86Zm8.341 2.34V9.45c0 .749-1.1.749-1.1 0V5.801c0-.748 1.1-.748 1.1 0Zm-2.383 0V9.45c0 .749-1.191.749-1.191 0V5.801c0-.748 1.191-.748 1.191 0Zm4.859 0V9.45c0 .749-1.192.749-1.192 0V5.801c0-.748 1.192-.748 1.192 0Zm-7.7 7.672a.73.73 0 0 1 .733.748c0 .375-.367.75-.733.75-.367 0-.734-.375-.734-.75a.73.73 0 0 1 .734-.748Zm8.524 0a.73.73 0 0 1 .734.748c0 .375-.367.75-.734.75-.458 0-.733-.375-.733-.75 0-.467.275-.748.733-.748Z"/></svg><svg viewBox="0 0 33 30" id="header-home" xmlns="http://www.w3.org/2000/svg"><path d="M32.998 14.65a1.989 1.989 0 0 1-.584 1.495 1.976 1.976 0 0 1-1.495.573h-2.26V26.524a3.142 3.142 0 0 1-.913 2.283 3.124 3.124 0 0 1-2.275.92h-4.65c-.933 0-1.422-.493-1.422-1.442v-5.418c0-1.453-.723-2.492-1.98-2.928-1.765-.616-3.722.635-3.792 2.508-.069 1.873-.052 3.826-.023 5.738 0 .944-.514 1.589-1.547 1.556-1.525-.05-3.053 0-4.577 0a3.125 3.125 0 0 1-2.223-.913 3.141 3.141 0 0 1-.922-2.225v-9.885H2.177c-1.403 0-2.198-.81-2.175-2.214-.011-.607.027-1.215.115-1.816A2.979 2.979 0 0 1 1.3 10.864C5.582 7.53 9.863 4.191 14.142.851a3.69 3.69 0 0 1 4.712 0c4.26 3.327 8.52 6.651 12.785 9.974a3.34 3.34 0 0 1 1.36 2.783v1.042Z"/></svg><svg viewBox="0 0 30 32" id="header-location" xmlns="http://www.w3.org/2000/svg"><path d="M16.219 14.63a.485.485 0 0 0 .49.487h2.947a.485.485 0 0 0 .491-.487v-3.407a.491.491 0 0 0 .452-.302.483.483 0 0 0-.104-.53l-1.964-1.947a.493.493 0 0 0-.348-.142h-4.91c-.13 0-.256.05-.349.142L10.96 10.39c-.14.14-.18.349-.103.53.075.182.253.3.452.302v3.408c0 .129.051.252.143.344a.493.493 0 0 0 .348.142h2.946a.485.485 0 0 0 .491-.487v-.973h.982v.974Zm-1.473-1.947a.489.489 0 0 0-.491.487v.974H12.29v-2.921h.49v.487h.983v-.487h.49v.487h.983v-.487h.49v.487h.983v-.487h.49v.487h.983v-.487h.982v2.92H17.2v-.973a.485.485 0 0 0-.491-.487h-1.964Z"/><path d="M0 24.562c.001.452.15.891.42 1.248.272.358.652.613 1.08.726v3.14c0 .553.33 1.131 4.25 1.597a83.37 83.37 0 0 0 9.25.45 83.373 83.373 0 0 0 9.25-.45c3.92-.466 4.25-1.023 4.25-1.596v-3.141a1.996 1.996 0 0 0 1.08-.726c.27-.357.419-.796.42-1.248 0-.584-.575-4.093-2-4.093s-2 3.51-2 4.093c.001.452.15.891.42 1.248.272.358.652.613 1.08.726v2.174a14.98 14.98 0 0 0-3.055-.604c-2.698-.3-5.41-.459-8.125-.475.53-1.422 1.165-3.228 1.5-4.456a11.503 11.503 0 0 0 6.685-4.758 11.976 11.976 0 0 0 1.928-8.096 11.85 11.85 0 0 0-3.796-7.37A11.351 11.351 0 0 0 15.02 0a11.35 11.35 0 0 0-7.616 2.95 11.853 11.853 0 0 0-3.797 7.371 11.976 11.976 0 0 0 1.928 8.096 11.504 11.504 0 0 0 6.685 4.758c.315 1.228.95 3.034 1.5 4.456a77.918 77.918 0 0 0-8.125.465c-1.05.095-2.087.3-3.095.614v-2.174a1.996 1.996 0 0 0 1.08-.726c.27-.357.419-.796.42-1.248 0-.584-.575-4.093-2-4.093s-2 3.51-2 4.093Zm8-12.788c0-1.9.737-3.72 2.05-5.064A6.921 6.921 0 0 1 15 4.613c1.856 0 3.637.754 4.95 2.097A7.246 7.246 0 0 1 22 11.774c0 1.899-.738 3.72-2.05 5.063A6.921 6.921 0 0 1 15 18.935a6.921 6.921 0 0 1-4.95-2.098A7.246 7.246 0 0 1 8 11.774Zm6.065 16.88c.26.68.45 1.145.47 1.207a.5.5 0 0 0 .465.323.5.5 0 0 0 .465-.323c0-.062.21-.512.47-1.207 6 .04 10.055.562 11.28 1.023C25.925 30.152 21.54 30.7 15 30.7s-10.925-.548-12.215-1.023c1.215-.45 5.275-.972 11.28-1.023Z"/></svg><svg viewBox="0 0 18 17" id="header-login" xmlns="http://www.w3.org/2000/svg"><path d="m15.58 12.033-3.895-1.03c-.01-.004-.021-.006-.033-.008-.007-.001-.018-.011-.018-.03V9.549l.386-.35c.458-.417.738-.968.79-1.554l.02-.231.02-.257c.403-.148.732-.536.85-1.037.097-.408.034-.813-.174-1.112a.98.98 0 0 0-.571-.4c.009-.59.012-1.427.012-1.796C12.967 1.262 11.574 0 9.86 0h-.071c-.833 0-1.652.257-2.307.722a.784.784 0 0 1-.473.155c-1.06 0-1.93.784-1.938 1.746l-.001.444c0 .253.001.945.007 1.441a.967.967 0 0 0-.602.405c-.208.299-.273.704-.177 1.112.119.503.46.897.868 1.044.013.198.027.384.042.555l.004.02c.049.587.329 1.138.786 1.553l.367.338v1.43c0 .017-.013.029-.022.03-.01.002-.021.004-.03.008l-3.894 1.03C1.017 12.307 0 13.48 0 14.83v1.503C0 16.7.32 17 .713 17h16.574c.393 0 .713-.3.713-.666V14.83c0-1.35-1.017-2.524-2.42-2.798Z"/></svg><svg viewBox="0 0 95 43" id="header-logo" xmlns="http://www.w3.org/2000/svg"><path d="m14.712 17.402.455-.275c.067-.334-.066-.5-.389-.5-.466 0-.7.356-.7 1.065 0 .279.038.602.115.97.826.546 1.237 1.25 1.237 2.106 0 .856-.3 1.52-.896 1.994-.596.473-1.407.708-2.425.708-.423 0-.863-.044-1.319-.128-.477.3-.714.528-.714.679 0 .15.348.227 1.04.227h1.663c2.462 0 3.695.878 3.695 2.633 0 .947-.37 1.696-1.114 2.25-.745.554-1.904.83-3.477.83-2.681 0-4.022-.577-4.022-1.726 0-.624.419-1.053 1.256-1.292l.977.437a3.24 3.24 0 0 0-.13.888c0 .925.697 1.388 2.085 1.388.848 0 1.5-.158 1.955-.47.456-.312.686-.701.686-1.164 0-.462-.137-.77-.415-.928-.278-.158-.83-.236-1.652-.236h-1.577c-.878 0-1.507-.146-1.889-.436-.381-.29-.57-.65-.57-1.072 0-.426.137-.782.407-1.065.27-.286.756-.639 1.448-1.057-1.259-.356-1.888-1.171-1.888-2.452 0-.808.292-1.458.877-1.953.585-.496 1.467-.742 2.637-.742.703 0 1.307.136 1.807.404a3.545 3.545 0 0 1-.096-.79c0-.602.162-1.038.488-1.306a1.676 1.676 0 0 1 1.093-.404c.403 0 .726.106.97.316.244.209.367.499.367.862 0 .367-.097.639-.293.815a1.027 1.027 0 0 1-.707.268c-.278 0-.504-.073-.685-.216-.193-.15-.29-.357-.3-.628Zm-3.451 3.021v.87c0 .72.063 1.212.188 1.469.126.257.315.385.57.385.256 0 .441-.125.552-.378.115-.253.17-.77.17-1.557v-.789c0-.84-.055-1.391-.162-1.655-.108-.265-.289-.397-.545-.397-.255 0-.448.136-.577.411-.134.276-.196.823-.196 1.641ZM23.746 18.694c-.403 0-.755.257-1.059.774-.303.518-.455 1.131-.455 1.84v4.324h1.155v.29h-5.08v-.29h.896V18.53h-.896v-.29h3.925v1.549c.14-.547.41-.97.814-1.267.4-.297.86-.444 1.367-.444.51 0 .925.143 1.244.43.318.286.481.69.481 1.211 0 .521-.118.922-.359 1.204-.24.28-.604.419-1.1.419-.496 0-.859-.162-1.092-.485-.233-.323-.263-.77-.089-1.34h.585c.278-.547.163-.822-.337-.822ZM29.046 25.015c-.7-.716-1.048-1.71-1.048-2.984s.393-2.25 1.181-2.93c.785-.679 1.789-1.017 3.003-1.017 2.463 0 3.648 1.227 3.551 3.679h-4.591v.631c0 1.054.137 1.85.407 2.39.27.54.744.808 1.418.808 1.26 0 2.085-.668 2.474-2.001l.292.048c-.207.774-.577 1.376-1.114 1.806-.537.43-1.344.646-2.418.646-1.404-.004-2.455-.363-3.155-1.076Zm2.11-3.575h1.678v-.79c0-.87-.052-1.464-.156-1.784-.103-.315-.31-.477-.618-.477-.31 0-.537.169-.685.507-.148.337-.218.921-.218 1.75v.794ZM39.077 25.015c-.7-.716-1.052-1.71-1.052-2.984s.393-2.25 1.182-2.93c.785-.679 1.788-1.017 3.003-1.017 2.462 0 3.647 1.227 3.547 3.679h-4.591v.631c0 1.054.137 1.85.407 2.39.27.54.744.808 1.414.808 1.26 0 2.085-.668 2.474-2.001l.292.048c-.207.774-.577 1.376-1.114 1.806-.537.43-1.344.646-2.418.646-1.396-.004-2.444-.363-3.144-1.076Zm2.107-3.575h1.677v-.79c0-.87-.051-1.464-.155-1.784-.104-.315-.311-.477-.619-.477-.31 0-.536.169-.684.507-.149.337-.219.921-.219 1.75v.794ZM48.005 18.243h3.925v1.483c.174-.496.44-.892.796-1.193.36-.301.9-.452 1.63-.452 1.68 0 2.525.9 2.525 2.695v4.856h.91v.29h-4.606v-.29h.667v-5.245c0-.647-.045-1.061-.13-1.252-.085-.188-.244-.283-.47-.283-.348 0-.656.228-.918.68-.267.45-.4 1.001-.4 1.644v4.456h.7v.29h-4.63v-.29h.897V18.53h-.896v-.286ZM60.762 25.015c-.7-.716-1.052-1.71-1.052-2.984s.392-2.25 1.181-2.93c.785-.679 1.789-1.017 3.003-1.017 2.463 0 3.648 1.227 3.551 3.679h-4.591v.631c0 1.054.137 1.85.407 2.39.27.54.744.808 1.418.808 1.26 0 2.085-.668 2.474-2.001l.292.048c-.207.774-.577 1.376-1.114 1.806-.537.43-1.344.646-2.418.646-1.4-.004-2.452-.363-3.151-1.076Zm2.11-3.575h1.678v-.79c0-.87-.052-1.464-.156-1.784-.104-.315-.31-.477-.618-.477-.311 0-.537.169-.685.507-.148.337-.219.921-.219 1.75v.794ZM75.099 18.694c-.4 0-.756.257-1.06.774-.303.518-.455 1.131-.455 1.84v4.324h1.156v.29h-5.08v-.29h.895V18.53h-.896v-.29h3.925v1.549c.141-.547.411-.97.815-1.267.4-.297.859-.444 1.366-.444.511 0 .926.143 1.244.43.319.286.482.69.482 1.211 0 .521-.119.922-.36 1.204-.236.28-.603.419-1.1.419-.492 0-.858-.162-1.092-.485-.233-.323-.262-.77-.088-1.34h.585c.274-.547.159-.822-.337-.822ZM79.02 18.533v-.29h4.721v.29h-.878l1.774 5.36 1.889-5.36h-1.093v-.29h2.296v.29h-.815l-3.043 8.7c-.36 1.01-.76 1.718-1.204 2.122-.444.404-.989.606-1.63.606-.64 0-1.143-.147-1.514-.437-.37-.29-.551-.661-.551-1.113 0-.451.118-.796.359-1.031.237-.239.552-.356.944-.356.9 0 1.352.37 1.352 1.112 0 .162-.034.356-.097.58h-.57c-.089.246-.096.452-.033.613.066.162.21.242.44.242.445 0 .841-.216 1.19-.653.347-.437.677-1.101.992-1.993l.359-1.003h-1.433L79.69 18.53h-.67v.004ZM47.339 8.797a.216.216 0 0 1-.13-.04.229.229 0 0 1-.063-.32c.822-1.197.955-2.11 1.081-2.995.048-.32.093-.65.174-.988.193-.815.437-1.49.748-2.048a33.998 33.998 0 0 1-1.122-.188c-.603-.106-1.23-.216-1.848-.271-1.07-.092-2.573-.022-3.632.848-.27.224-.607.583-.666 1.042a.237.237 0 0 1-.26.199.229.229 0 0 1-.2-.257c.082-.606.496-1.061.834-1.337 1.18-.969 2.806-1.053 3.969-.954.637.055 1.274.169 1.889.275.429.077.866.154 1.307.21.259-.375.559-.687.896-.937.537-.4 1.377-.712 2.114-.392.278.12.574.378.57.741-.003.286-.2.55-.555.745-.593.323-1.315.44-2.288.382a11.667 11.667 0 0 1-.504-.044c-.33.547-.589 1.237-.792 2.093-.075.315-.119.62-.167.947-.137.936-.278 1.905-1.16 3.19a.241.241 0 0 1-.195.099Zm2.606-6.762c.078.007.16.01.237.018.878.055 1.522-.048 2.037-.327.093-.05.315-.187.315-.345 0-.128-.145-.25-.293-.312-.559-.238-1.218.019-1.651.338a3.575 3.575 0 0 0-.645.628Z"/><path d="M50.037 8.874a.636.636 0 0 1-.374-.114c-.178-.124-.282-.345-.293-.624-.014-.418.137-.793.286-1.156.103-.253.203-.492.24-.738 0-.007 0-.011.004-.018a.469.469 0 0 0-.13.051c-.77.455-1.596 1.344-2.203 2.379a.236.236 0 0 1-.318.084.231.231 0 0 1-.086-.315c.648-1.102 1.533-2.052 2.37-2.544.319-.188.63-.158.77.077.086.136.06.29.052.356-.048.3-.159.576-.27.844-.137.33-.263.646-.252.966.004.128.04.227.096.264.078.055.241.03.437-.073.197-.103.39-.224.582-.342l.092-.059c.185-.113.363-.23.545-.356-.07-.477.081-1.042.4-1.398a1.062 1.062 0 0 1 1.103-.338.518.518 0 0 1 .3.194c.096.144.096.33 0 .53-.185.374-.533.638-.837.873l-.107.084c-.104.081-.211.162-.319.239a.63.63 0 0 0 .237.286c.096.055.226.081.419.085a2.764 2.764 0 0 0 1.722-.584.22.22 0 0 1 .177-.048.231.231 0 0 1 .156.1s.666.748 4.336.748h5.254a.231.231 0 1 1 0 .463h-5.254c-3.044 0-4.158-.507-4.54-.782a3.305 3.305 0 0 1-1.855.565c-.189 0-.433-.022-.648-.147a1.046 1.046 0 0 1-.381-.414c-.148.099-.297.198-.448.29l-.093.058c-.2.125-.404.25-.611.36-.23.114-.411.154-.56.154Zm2.773-2.636a.617.617 0 0 0-.481.224c-.17.191-.278.485-.296.768l.114-.089.112-.084c.277-.213.566-.433.703-.712a.238.238 0 0 0 .026-.085.59.59 0 0 0-.178-.022ZM37.077 8.874h-3.999a.231.231 0 1 1 0-.462h4c4.272 0 5.331-.856 5.342-.863a.254.254 0 0 1 .182-.055.234.234 0 0 1 .163.095c.677.977 1.3.709 1.322.694.648-.198.955-.925 1.103-1.505.134-.514.215-1.05.293-1.571.078-.503.155-1.02.281-1.527.315-1.278.907-2.232 1.718-2.765a.234.234 0 0 1 .322.066.23.23 0 0 1-.066.32c-.9.587-1.326 1.677-1.522 2.489-.119.484-.196.995-.27 1.486-.082.533-.163 1.08-.3 1.616-.256.995-.737 1.626-1.389 1.82-.004.004-.87.412-1.74-.679-.493.276-1.933.841-5.44.841ZM23.277 37.919l-.319 1.01-.548-.17.863-2.72 1 .312c.322.103.544.253.659.459.115.206.133.44.048.705-.082.26-.233.44-.452.54-.218.102-.485.102-.796.003l-.455-.14Zm1.144-.58c.044-.136.04-.254-.015-.35-.052-.095-.163-.168-.333-.223l-.393-.121-.266.837.392.12c.322.104.526.016.615-.263ZM28.664 37.574l-.397 1.626c-.051.217-.044.393.026.525.07.132.197.22.378.264.181.044.33.022.456-.062.122-.084.21-.235.262-.455l.397-1.627.555.133-.396 1.626a1.385 1.385 0 0 1-.304.617.944.944 0 0 1-.496.297 1.325 1.325 0 0 1-.611-.007c-.337-.081-.578-.243-.73-.492-.151-.246-.18-.562-.088-.947l.396-1.627.552.129ZM34.385 41.652l-.474-1.208-.248-.04-.19 1.094-.566-.096.482-2.812 1.08.184c.33.055.567.176.712.367a.826.826 0 0 1 .152.672.812.812 0 0 1-.27.503.9.9 0 0 1-.567.198l.514 1.24-.625-.102Zm-.66-1.637.467.077c.322.055.511-.059.56-.345a.444.444 0 0 0-.064-.338c-.066-.088-.181-.147-.348-.176l-.466-.077-.148.859ZM39.002 39.85l-.077.734 1.01.107-.044.433-1.01-.107-.082.764 1.133.117-.048.456-1.707-.177.3-2.834 1.707.176-.048.452-1.134-.121ZM49.274 42.684l-.574.004-1.3-1.928.016 1.939-.574.003-.023-2.848.574-.004 1.3 1.945-.015-1.953.574-.003.022 2.845ZM54.303 41.836l-1.148.088-.159.587-.603.048.833-2.893.655-.051 1.274 2.727-.604.048-.248-.554Zm-.189-.419L53.6 40.25l-.33 1.233.844-.066ZM59.772 38.888l.067.448-.785.113.348 2.376-.57.08-.348-2.375-.782.114-.066-.448 2.136-.308ZM63.212 38.257l.355 1.633c.048.22.13.371.252.46.119.087.274.113.456.073.181-.037.307-.122.381-.254.074-.128.085-.304.04-.52l-.355-1.635.56-.117.355 1.634c.055.257.055.484-.004.682a.942.942 0 0 1-.314.481c-.152.125-.338.21-.556.254-.337.073-.63.029-.874-.129s-.41-.43-.492-.815l-.356-1.633.552-.114ZM70.148 39.471l-.956-.884-.244.07.311 1.068-.552.158-.796-2.739 1.052-.301c.322-.092.589-.084.8.022.214.106.355.286.43.54a.827.827 0 0 1-.023.569c-.074.172-.215.312-.422.422l1.007.9-.607.175Zm-1.307-1.189.455-.128c.315-.092.433-.272.352-.551a.425.425 0 0 0-.204-.275c-.1-.052-.23-.056-.389-.008l-.455.129.24.833ZM73.514 35.867l.252.694.959-.342.148.411-.96.342.264.723 1.073-.382.156.43-1.615.572-.97-2.683 1.615-.573.155.426-1.077.382ZM52.815 32.05h-9.546v.92h9.546v-.92ZM28.187 8.14c-1.2-.052-2.551-.147-3.91-.411-.248-.617-.378-1.278-.504-1.975-.04-.224-.081-.448-.126-.669-.185-.899-.5-2.037-1.307-2.845-.066-.066-.237-.238-.488-.238h-.008c-.27 0-.496.187-.626.51-.289.738-.226 1.538-.152 2.078.119.877.337 1.545.686 2.096.103.165.222.316.348.452a10.792 10.792 0 0 1-1.73-.812.328.328 0 0 0-.159-.125c-.278-1.593-.578-3.226-1.103-4.794C18.93.875 18.67.302 18.093.071c-.222-.088-.44-.085-.615.01-.281.159-.33.47-.348.592-.148.984.056 2.191.489 3.311-.918-.925-1.888-1.846-3.08-2.489-.36-.194-.838-.407-1.349-.352a.346.346 0 0 0-.31.337c-.016.647.362 1.245 1.155 1.84 1.233.921 2.899 1.424 3.584 1.6.289.349.611.68.966.988-1.692-.309-3.484-.008-4.973.884a.34.34 0 0 0-.166.313.349.349 0 0 0 .196.293c.611.29 1.274.382 1.93.382.429 0 .855-.04 1.255-.092 1.262-.158 2.28-.407 3.188-.767.53.308 1.096.584 1.707.815-.744.279-1.522.61-2.177 1.123-.76.595-1.24 1.358-1.352 2.155-.056.39.13.566.244.635a.498.498 0 0 0 .267.074.784.784 0 0 0 .37-.11c1.467-.779 2.677-1.935 3.848-3.051l.359-.342c.215.056.426.103.64.151.008.004.015.004.026.004 1.47.304 2.926.407 4.214.462h.015c.185 0 .34-.147.348-.33a.356.356 0 0 0-.337-.367ZM14.453 2.758c-.418-.312-.685-.61-.803-.9.196.052.385.144.559.24.837.45 1.57 1.064 2.258 1.717-.792-.304-1.5-.672-2.014-1.057Zm7.413.004c0-.004 0-.004.004-.008.663.68.933 1.674 1.092 2.47.045.218.085.438.126.658.082.444.163.9.285 1.344a2.3 2.3 0 0 1-1.033-.91c-.292-.463-.481-1.043-.585-1.822-.1-.745-.066-1.277.111-1.732ZM17.82.768a.683.683 0 0 1 .011-.062c.311.125.485.532.611.91.437 1.315.719 2.695.963 4.053-.008-.007-.015-.01-.022-.018C18.286 4.38 17.6 2.248 17.819.768Zm-1.081 6.23c-.652.08-1.374.136-2.044.007 1.255-.54 2.7-.679 4.028-.385-.588.161-1.244.283-1.984.378Zm2.184 3.906c.134-.547.504-1.076 1.056-1.505.551-.43 1.2-.72 2-1.02.073-.026.144-.056.214-.078-1.01.955-2.062 1.924-3.27 2.603ZM83.452 6.781c-1.489-.892-3.277-1.193-4.973-.884.355-.309.677-.639.966-.988.685-.176 2.348-.679 3.585-1.6.792-.591 1.17-1.193 1.155-1.84a.349.349 0 0 0-.31-.337c-.52-.052-.993.161-1.349.352-1.192.643-2.162 1.56-3.08 2.49.433-1.12.636-2.325.488-3.309-.018-.117-.063-.433-.348-.59-.174-.096-.392-.1-.615-.012-.577.232-.837.804-1.01 1.337-.523 1.564-.823 3.2-1.104 4.794a.32.32 0 0 0-.16.129c-.595.348-1.188.613-1.728.81.125-.139.24-.29.344-.45.348-.551.566-1.22.685-2.097.074-.54.137-1.34-.152-2.078-.13-.326-.37-.525-.633-.51-.252.004-.422.176-.489.239-.81.811-1.126 1.945-1.31 2.845-.045.224-.086.448-.127.672-.126.697-.255 1.354-.503 1.971-1.36.264-2.71.36-3.91.411a.346.346 0 0 0 .015.69h.014c1.289-.055 2.744-.158 4.214-.462.007 0 .015-.004.022-.004.215-.044.426-.095.64-.15l.356.337c1.17 1.116 2.381 2.273 3.848 3.05a.79.79 0 0 0 .37.107.498.498 0 0 0 .267-.073c.114-.07.3-.242.244-.632-.111-.792-.592-1.56-1.352-2.154-.655-.51-1.433-.841-2.177-1.124a11.535 11.535 0 0 0 1.704-.811c.907.36 1.929.602 3.195.764.4.05.826.091 1.255.091.652 0 1.319-.091 1.926-.381a.342.342 0 0 0 .196-.294.318.318 0 0 0-.16-.309Zm-.593-4.684c.175-.092.363-.187.556-.238-.119.29-.389.587-.807.899-.515.385-1.222.753-2.011 1.057.692-.657 1.43-1.266 2.263-1.718Zm-4.236-.48c.126-.383.297-.786.611-.911a.683.683 0 0 1 .011.062c.219 1.48-.466 3.613-1.566 4.886l-.022.015c.248-1.358.53-2.738.966-4.053Zm-4.647 4.265c.04-.22.082-.44.126-.657.163-.793.433-1.788 1.096-2.47 0 .003 0 .003.004.007.178.451.21.987.11 1.736-.103.775-.288 1.355-.584 1.82a2.315 2.315 0 0 1-1.033.908c.118-.448.2-.903.281-1.344Zm4.17 5.022c-1.211-.68-2.263-1.645-3.274-2.61.07.026.145.051.219.08.803.302 1.451.592 2 1.021.551.433.921.962 1.055 1.51Zm2.18-3.906a14.483 14.483 0 0 1-1.984-.374 6.653 6.653 0 0 1 4.029.385c-.667.125-1.389.07-2.044-.01ZM1.581 23.757c.873 0 1.581-.702 1.581-1.568 0-.866-.708-1.567-1.58-1.567-.874 0-1.582.701-1.582 1.567s.708 1.568 1.581 1.568ZM92.984 23.757c.873 0 1.58-.702 1.58-1.568 0-.866-.707-1.567-1.58-1.567-.874 0-1.582.701-1.582 1.567s.708 1.568 1.582 1.568Z"/></svg><svg viewBox="0 0 22 16" id="header-mail" xmlns="http://www.w3.org/2000/svg"><path d="M1.61 0c-.208 0-.406.044-.587.125l9.432 9.173c.34.33.768.33 1.107 0L20.977.125A1.437 1.437 0 0 0 20.392 0H1.61ZM.017 1.577a2.16 2.16 0 0 0-.017.27v12.307c0 .259.043.508.126.73L6.674 8.04.017 1.577Zm21.966 0-6.64 6.452 6.531 6.856a2.1 2.1 0 0 0 .126-.73V1.845c0-.09-.006-.182-.017-.27ZM14.111 9.23l-1.51 1.471c-.915.89-2.27.889-3.185 0L7.915 9.24l-6.456 6.75c.05.005.1.01.15.01h18.782c.053 0 .107-.004.159-.01l-6.44-6.759Z"/></svg><svg viewBox="0 0 14 18" id="header-share" xmlns="http://www.w3.org/2000/svg"><path d="M11.407 0C9.982 0 8.815 1.227 8.815 2.727c0 .44.106.86.283 1.228L4.513 7.176a2.534 2.534 0 0 0-1.92-.903C1.167 6.273 0 7.5 0 9c0 1.5 1.167 2.727 2.593 2.727.76 0 1.444-.35 1.92-.903l4.585 3.213a2.811 2.811 0 0 0-.283 1.236c0 1.5 1.167 2.727 2.592 2.727C12.833 18 14 16.773 14 15.273c0-1.5-1.167-2.728-2.593-2.728-.623 0-1.196.241-1.644.631L5.048 9.878a2.84 2.84 0 0 0 0-1.756l4.699-3.307c.45.4 1.029.64 1.66.64C12.834 5.455 14 4.227 14 2.727 14 1.227 12.833 0 11.408 0Z"/></svg><svg viewBox="0 0 32 30" id="header-shop" xmlns="http://www.w3.org/2000/svg"><path d="M8.525 20.726h3.463v3.14H8.524v-3.14ZM1.875 20.726h3.462v3.14H1.875v-3.14Z"/><path d="M6.834 20.435h7.072v9.348H6.833v-9.348ZM8 0h15.764v7.741H8V0Z"/><path d="M26.52 13.034a4.261 4.261 0 0 1-2.158 2.203 4.317 4.317 0 0 1-3.092.183 4.276 4.276 0 0 1-2.408-1.931 4.283 4.283 0 0 1-3.682 2.132 4.285 4.285 0 0 1-3.71-2.081 4.259 4.259 0 0 1-2.414 1.897 4.3 4.3 0 0 1-3.073-.21 4.243 4.243 0 0 1-2.128-2.207 3.412 3.412 0 0 1-2.165 1.043v15.72h8.766v-9.927a.584.584 0 0 1 .575-.59h8.238c.332 0 .604.261.616.59v9.926h8.766V14.06a3.239 3.239 0 0 1-2.13-1.025ZM8.762 24.451a.582.582 0 0 1-.173.413.592.592 0 0 1-.416.171H3.532a.587.587 0 0 1-.59-.584v-4.309c0-.322.265-.584.59-.584h4.64c.157 0 .307.062.417.171.11.11.173.258.173.413v4.309Zm18.563-4.309v4.309a.582.582 0 0 1-.173.413.592.592 0 0 1-.417.171h-4.64a.587.587 0 0 1-.59-.584v-4.309c0-.322.264-.584.59-.584h4.64c.156 0 .306.062.417.171.11.11.172.258.172.413Z"/><path d="M28.736 3.921a.888.888 0 0 0-.76-.43H24.97v4.674a.61.61 0 0 1-.616.585H7.466a.61.61 0 0 1-.615-.585V3.492H4.429a.883.883 0 0 0-.724.373L.157 8.905A.865.865 0 0 0 0 9.407v1.366c0 .725.371 1.401.986 1.794.616.392 1.39.447 2.056.146a2.133 2.133 0 0 0 1.234-1.637l.024-.342a.587.587 0 0 1 .587-.546h.02c.318.01.57.27.57.585 0 .14-.01.282-.027.422l-.014.205a3.062 3.062 0 0 0 1.557 2.64 3.116 3.116 0 0 0 3.086-.01 3.06 3.06 0 0 0 1.541-2.65c0-.322.264-.584.59-.584.325 0 .589.262.589.585-.004.816.32 1.6.9 2.177.58.578 1.37.903 2.192.903.823 0 1.611-.325 2.192-.904.58-.578.904-1.362.9-2.177 0-.323.263-.585.589-.585h.06c.326 0 .59.262.59.585a3.06 3.06 0 0 0 1.534 2.658c.954.55 2.131.556 3.09.014a3.061 3.061 0 0 0 1.56-2.643l-.003-.02a3.297 3.297 0 0 1-.058-.616.586.586 0 0 1 .56-.58.588.588 0 0 1 .616.523l.049.5a2.136 2.136 0 0 0 1.297 1.534 2.167 2.167 0 0 0 2.008-.21c.593-.396.948-1.058.947-1.767V9.347c0-.157-.04-.31-.12-.446l-2.966-4.98Z"/></svg><svg viewBox="0 0 15 17" id="header-sing" xmlns="http://www.w3.org/2000/svg"><path fill-rule="evenodd" clip-rule="evenodd" d="M0 10.29h3.996v.866l.001.019.003.056.003.019.002.018.002.019.003.018.003.018.004.018.004.019.001.008.003.01.002.008.002.01.003.008.002.01.002.007.005.018.006.017.006.018.006.018.013.033.007.017.007.017.008.017.016.033.009.016.008.016.019.031.009.016.01.015.02.03.011.015.022.03.023.028.012.014.007.008.005.005.007.008.005.006.007.008.014.013.012.013.014.013.041.038.015.011.014.012.016.012a1.048 1.048 0 0 0 .211.127c.38.171.828.11 1.146-.158l3.149-2.65a1.045 1.045 0 0 0 0-1.6L5.767 5.035a1.075 1.075 0 0 0-.24-.153l-.016-.007-.016-.007-.007-.003-.015-.006-.015-.006-.017-.006-.007-.002-.016-.006-.015-.005-.033-.01-.007-.002-.016-.005-.016-.003-.016-.004-.007-.002-.017-.003-.016-.004-.017-.003-.017-.002-.006-.002-.018-.002L5.2 4.79l-.017-.002h-.007l-.016-.002-.017-.002h-.017l-.018-.001h-.097l-.018.001-.017.002h-.006l-.017.002-.017.002-.017.002-.018.003h-.006l-.019.004-.015.003-.017.003-.006.001-.033.008-.017.005-.018.005h-.005l-.018.006-.015.005-.018.006-.005.002-.016.006-.017.006-.016.007-.017.007-.006.002-.016.007a.412.412 0 0 0-.024.012l-.028.014-.018.009a.918.918 0 0 0-.05.029l-.016.01c-.197.126-.345.31-.423.524l-.003.007-.006.018-.004.01c-.01.032-.019.064-.026.097l-.007.03a1.022 1.022 0 0 0-.019.189v.856H.002V.538L.003.523.004.517A.554.554 0 0 1 .127.215L.133.206l.028-.03.02-.02.01-.009L.21.13.22.123a.577.577 0 0 1 .31-.12L.533.001.55 0 .564 0h11.958c.657 0 1.287.257 1.752.713.465.457.726 1.076.726 1.721v12.132c0 .645-.261 1.264-.726 1.721a2.504 2.504 0 0 1-1.752.713H.549l-.015-.002H.529a.578.578 0 0 1-.31-.12l-.007-.007-.021-.018-.01-.009-.023-.022-.007-.008-.018-.02-.006-.009a.554.554 0 0 1-.123-.302v-.006l-.002-.015V10.29H0Zm5.69-9.157 3.815.857a2.212 2.212 0 0 1 1.744 2.148v8.723c0 1.028-.724 1.92-1.744 2.148l-3.816.857h6.831c.351 0 .688-.137.937-.38.248-.245.388-.576.388-.921V2.434c0-.345-.14-.676-.388-.92a1.339 1.339 0 0 0-.937-.381H5.69Z"/></svg></svg>